<svg xmlns="http://www.w3.org/2000/svg" version="1.1" xmlns:xlink="http://www.w3.org/1999/xlink" width="1080" height="1080"><svg width="1080" height="1080" viewBox="0 0 1080 1080" version="1.1" id="SvgjsSvg1235" xml:space="preserve" inkscape:export-filename="PNGs\MountainLogoTextUnder.pdf" inkscape:export-xdpi="96" inkscape:export-ydpi="96" sodipodi:docname="MountainLogoTextUnder.svg" inkscape:version="1.3.2 (091e20e, 2023-11-25, custom)" xmlns:inkscape="http://www.inkscape.org/namespaces/inkscape" xmlns:sodipodi="http://sodipodi.sourceforge.net/DTD/sodipodi-0.dtd" xmlns="http://www.w3.org/2000/svg" xmlns:svg="http://www.w3.org/2000/svg"><sodipodi:namedview id="SvgjsSodipodi:namedview1234" pagecolor="#ffffff" bordercolor="#000000" borderopacity="0.25" inkscape:showpageshadow="2" inkscape:pageopacity="0.0" inkscape:pagecheckerboard="0" inkscape:deskcolor="#d1d1d1" inkscape:document-units="px" showguides="false" inkscape:zoom="0.28155436" inkscape:cx="-143.84434" inkscape:cy="234.41299" inkscape:window-width="1440" inkscape:window-height="830" inkscape:window-x="-6" inkscape:window-y="-6" inkscape:window-maximized="1" inkscape:current-layer="layer1"></sodipodi:namedview><defs id="SvgjsDefs1233"><rect x="123.60422" y="650.73986" width="883.21107" height="94.757041" id="SvgjsRect1232"></rect></defs><g inkscape:label="Layer 1" inkscape:groupmode="layer" id="SvgjsG1231"><path id="SvgjsPath1230" style="display:inline;fill:#000000;stroke-width:0.931811" d="m 510.16308,224.67616 c -2.13857,0.24125 -4.70703,0.93666 -8.14062,1.85742 -6.44504,1.72831 -15.308,3.75182 -19.69531,4.49805 -6.01466,1.02302 -10.53394,3.99876 -18.36915,12.09375 -9.12807,9.43072 -12.12812,11.16608 -24.67773,14.28125 -7.85758,1.95046 -15.99233,5.08626 -18.07617,6.96875 -9.49637,8.57875 -16.00906,31.63192 -24.77735,87.68945 -4.21125,26.92348 -6.8213,37.10994 -14.09179,55.00586 -4.90752,12.0796 -11.97732,31.37653 -15.71094,42.88281 -3.73361,11.50628 -8.65853,23.24974 -10.94531,26.0957 l -4.15821,5.17383 -9.01367,-13.33984 c -5.50228,-8.14397 -10.44141,-13.33789 -12.68359,-13.33789 -2.01988,0 -6.68974,2.57308 -10.37695,5.71875 -3.68724,3.14567 -11.29563,9.03791 -16.90821,13.09375 -12.76691,9.22582 -19.25018,16.28877 -26.28515,28.63867 -4.75235,8.3427 -6.41834,9.69336 -11.94727,9.69336 -5.17072,0 -8.44809,-2.19046 -16.78906,-11.22461 -15.5921,-16.88786 -23.46067,-15.33345 -34.62695,6.83984 -4.45716,8.85071 -10.14242,16.40652 -15.80274,21.00196 -13.37841,10.86146 -37.20057,26.53388 -69.48437,45.88086 v 49.22851 l 824.79492,-0.41797 v -48.33203 c -43.56192,-32.026 -99.37745,-69.22306 -106.95703,-76.77929 -13.21673,-13.176 -25.50738,-24.78192 -27.31055,-25.79102 -2.06808,-1.15736 -6.69842,-0.80387 -12.54297,0.95508 -10.50284,3.16088 -15.75314,1.12004 -22.11914,-8.59571 -1.87013,-2.85418 -7.4107,-7.95034 -12.31445,-11.32421 -9.62543,-6.62248 -37.31751,-46.26616 -43.16407,-61.79493 -1.734,-4.60563 -4.34821,-9.95066 -5.375,-11.32031 -2.12061,-2.82874 -35.55479,-20.98047 -38.64453,-20.98047 -1.11103,0 -9.85987,3.67402 -19.4414,8.16407 -9.58152,4.49004 -19.12845,8.16406 -21.21485,8.16406 -2.08639,0 1.6163,2.49325 -2.73242,-1.43555 -4.34869,-3.92881 -9.25874,-7.14453 -10.91211,-7.14453 -5.06358,0 -36.16096,26.30004 -37.52539,31.73633 -1.44803,5.76941 -3.0153,6.08401 -10.60937,2.13281 -8.73505,-4.54485 -14.25445,-11.77737 -15.72071,-20.60156 -0.74608,-4.49007 -5.30584,-25.15538 -10.13281,-45.92188 -4.82694,-20.76649 -10.61243,-47.55886 -12.85547,-59.53906 -3.71948,-19.86609 -4.88915,-22.83798 -13.30078,-33.76953 -10.40228,-13.51854 -12.94561,-16.86829 -19.36133,-16.14453 z"></path><text xml:space="preserve" style="font-size:74.6667px;line-height:0;font-family:Audiowide;-inkscape-font-specification:Audiowide;fill:#000000;stroke:#000000;stroke-linejoin:round" x="128.54929" y="704.45288" id="SvgjsText1229"><tspan sodipodi:role="line" id="SvgjsTspan1228" x="128.54929" y="704.45288">Astur Climbing Tech</tspan><tspan sodipodi:role="line" x="128.54929" y="704.45288" id="SvgjsTspan1227"></tspan><tspan sodipodi:role="line" x="128.54929" y="704.45288" id="SvgjsTspan1226"></tspan></text></g></svg><style>@media (prefers-color-scheme: light) { :root { filter: none; } }
@media (prefers-color-scheme: dark) { :root { filter: none; } }
</style></svg>